<svg id="Layer_2" data-name="Layer 2" xmlns="http://www.w3.org/2000/svg" xmlns:xlink="http://www.w3.org/1999/xlink" viewBox="0 0 400 300" width="406" height="306" class="illustration styles_illustrationTablet__1DWOa"><defs><linearGradient id="linear-gradient" x1="170.97" y1="253.24" x2="231.06" y2="182.44" gradientUnits="userSpaceOnUse"><stop offset="0" stop-color="#4444a5" style="--darkreader-inline-stopcolor: #363684;" data-darkreader-inline-stopcolor=""></stop><stop offset="1"></stop></linearGradient><linearGradient id="linear-gradient-2" x1="257.72" y1="194.94" x2="310.73" y2="132.48" xlink:href="#linear-gradient"></linearGradient><linearGradient id="linear-gradient-3" x1="41.11" y1="189.58" x2="74.94" y2="169.47" xlink:href="#linear-gradient"></linearGradient></defs><title>PP</title><path d="M196.24,288.6,23.74,186.65c-5.49-3.08-10.2-8.15-4.85-11.46L192,75.41c2.6-1.61,6.54-2.66,9.18-1.13L382.28,179.37c5.49,3.19,6.48,12.1,1,15.29L219,288.44A22.94,22.94,0,0,1,196.24,288.6Z" fill="#4444a5" style="--darkreader-inline-fill: #7895c7;" data-darkreader-inline-fill=""></path><path d="M183,211.06c-18,10.3-36,20.73-54,31.08C148.44,254,174.71,269.71,178.94,272l54.25-31.52Z" fill="url(#linear-gradient)"></path><path d="M272.92,218.41l47.86-27.8L260.05,155l-49.53,25.58C215.72,184.35,267.21,215.34,272.92,218.41Z" fill="url(#linear-gradient-2)"></path><path d="M261.52,7.22c13.19,8.26,46.37,27.45,57.68,34.39,2.56,1.57,3,3.91,3,6.92l0,140.41a4.48,4.48,0,0,1-5.76.88l-55.67-31.46c-2.77-1.63-4.95-3.31-4.95-6.52l.48-142.07C256.27,6.68,258.91,5.58,261.52,7.22Z" fill="#68e1fd" style="--darkreader-inline-fill: #63e0fd;" data-darkreader-inline-fill=""></path><path d="M256.38,8.76l18.1,10.45v3.91a1.88,1.88,0,0,0,.94,1.62l14,8.09a1.24,1.24,0,0,0,1.86-1.07V28.91l26.3,15.42a1.67,1.67,0,0,1,.82,1.44v140.4a1.13,1.13,0,0,1-1.7,1l-60.91-35.31a6,6,0,0,0,2.68,5.61c3.16,2,58.64,33.41,58.64,33.41s4.39,2,5.67-3.25V46.35a5.78,5.78,0,0,0-2.38-4.69c-2.54-1.84-59.13-34.74-59.13-34.74S257.28,5.07,256.38,8.76Z" fill="#124577" style="--darkreader-inline-fill: #8bc2ed;" data-darkreader-inline-fill=""></path><path d="M246.06,37.68V50.53a5,5,0,0,0,3.82,4.27c3.48.79,4-3.79,4-3.79V41.52Z" fill="#c13d3d" style="--darkreader-inline-fill: #c85151;" data-darkreader-inline-fill=""></path><path d="M253.63,42.79,254,56.32a5,5,0,0,0,3.82,4.27c3.48.79,4-3.79,4-3.79V47.31Z" fill="#dd842a" style="--darkreader-inline-fill: #e0903e;" data-darkreader-inline-fill=""></path><path d="M261.73,47.39V60.24a5,5,0,0,0,3.82,4.27c3.48.79,4-3.79,4-3.79V51.23Z" fill="#c13d3d" style="--darkreader-inline-fill: #c85151;" data-darkreader-inline-fill=""></path><path d="M269.5,52.07V64.92a5,5,0,0,0,3.82,4.27c3.48.79,4-3.79,4-3.79V55.91Z" fill="#dd842a" style="--darkreader-inline-fill: #e0903e;" data-darkreader-inline-fill=""></path><path d="M277.28,56V68.84a5,5,0,0,0,3.82,4.27c3.48.79,4-3.79,4-3.79V59.83Z" fill="#c13d3d" style="--darkreader-inline-fill: #c85151;" data-darkreader-inline-fill=""></path><path d="M284.92,61.24V74.09a5,5,0,0,0,3.82,4.27c3.48.79,4-3.79,4-3.79V65.08Z" fill="#dd842a" style="--darkreader-inline-fill: #e0903e;" data-darkreader-inline-fill=""></path><polyline points="284.92 61.9 303.39 35.87 310.51 40.22 292.7 66.49" fill="#f29d40" style="--darkreader-inline-fill: #f3a24a;" data-darkreader-inline-fill=""></polyline><polyline points="277.28 57.34 295.4 31.32 303.39 35.87 284.92 61.9" fill="#e04f4f" style="--darkreader-inline-fill: #e25858;" data-darkreader-inline-fill=""></polyline><polyline points="269.5 52.76 288.33 26.97 295.4 31.32 277.28 57.4" fill="#f29d40" style="--darkreader-inline-fill: #f3a24a;" data-darkreader-inline-fill=""></polyline><polyline points="261.73 48.03 280.01 22.29 288.33 26.97 269.5 52.7" fill="#e04f4f" style="--darkreader-inline-fill: #e25858;" data-darkreader-inline-fill=""></polyline><polyline points="253.84 43.18 271.33 17.44 280.01 22.29 261.73 48.03" fill="#f29d40" style="--darkreader-inline-fill: #f3a24a;" data-darkreader-inline-fill=""></polyline><polyline points="246.06 38.47 263.44 12.83 271.33 17.44 253.84 43.18" fill="#e04f4f" style="--darkreader-inline-fill: #e25858;" data-darkreader-inline-fill=""></polyline><polyline points="238.29 33.93 256.38 8.76 263.44 12.83 246.06 38.47" fill="#f29d40" style="--darkreader-inline-fill: #f3a24a;" data-darkreader-inline-fill=""></polyline><path d="M317.58,44.33s.82.17.82,1.58V70.68L298.22,82.22,301,64.56Z" fill="#aa2b2b" style="--darkreader-inline-fill: #d75f5f;" data-darkreader-inline-fill=""></path><path d="M292.7,66.49V78a5,5,0,0,0,3.82,4.27c3.48.79,4-3.79,4-3.79l-.15-7.58Z" fill="#c13d3d" style="--darkreader-inline-fill: #c85151;" data-darkreader-inline-fill=""></path><polyline points="300.32 70.91 317.58 44.33 310.51 40.22 292.7 66.49" fill="#e04f4f" style="--darkreader-inline-fill: #e25858;" data-darkreader-inline-fill=""></polyline><path d="M238.29,33.93v13.5a5,5,0,0,0,3.82,4.27c3.48.79,4-3.79,4-3.79V38.42Z" fill="#dd842a" style="--darkreader-inline-fill: #e0903e;" data-darkreader-inline-fill=""></path><ellipse cx="289.81" cy="155.66" rx="2.5" ry="12.21" fill="#46bbce" style="--darkreader-inline-fill: #55c1d2;" data-darkreader-inline-fill=""></ellipse><path d="M251.21,154.67s.53,33.59,1.8,34.14,4.53.5,5.72-1.11,2.73-16.14,2.46-20.18-1.85-13.11-1.85-13.11" fill="#ffb288" style="--darkreader-inline-fill: #ffa879;" data-darkreader-inline-fill=""></path><path d="M250.75,189.87a10.41,10.41,0,0,0,1.51-3.93c2.65.66,4.72,1.06,7-.3.44,1.91,2,4.3,1.86,5.77-.18,2.32-2.15,1.57-4.12,2.17-1.39.42-2.37,1.85-3.22,3.17a9.11,9.11,0,0,1-10.63,2,5.49,5.49,0,0,1-.44-1.76C242.39,194.32,249.33,191.91,250.75,189.87Z" fill="#29333f" style="--darkreader-inline-fill: #c7c2bb;" data-darkreader-inline-fill=""></path><path d="M268.64,128.13a57.53,57.53,0,0,1,.53-7.5l-5-1c-10.88,4.87-13,35-13,35s7.61,4,9.75,3.45c1.74-.45,6.16-13.82,7.74-18.8C268.59,135.59,268.53,131.86,268.64,128.13Z" fill="#dd842a" style="--darkreader-inline-fill: #e0903e;" data-darkreader-inline-fill=""></path><path d="M251.21,154.67l-.48,28.52s7.83,1.34,9.44.56,2.46-28,2.46-28Z" fill="#dd842a" style="--darkreader-inline-fill: #e0903e;" data-darkreader-inline-fill=""></path><polygon points="266.3 146.55 264.51 129.84 262.63 155.8 266.3 146.55" fill="#b5641c" style="--darkreader-inline-fill: #e59854;" data-darkreader-inline-fill=""></polygon><path d="M48.88,194.08l41.68-23.64-18.15-8.19L31.77,184.89C37,188.65,43.16,191,48.88,194.08Z" opacity="0.32" fill="url(#linear-gradient-3)"></path><path d="M71.19,149.27s-3.65,24.92,12,25C98.31,174.35,94.42,149,94.42,149S83.46,139.43,71.19,149.27Z" fill="#68e1fd" style="--darkreader-inline-fill: #63e0fd;" data-darkreader-inline-fill=""></path><path d="M71.19,149.27s-3.65,24.92,12,25C98.31,174.35,94.42,149,94.42,149S83.46,139.43,71.19,149.27Z" opacity="0.15"></path><ellipse cx="82.77" cy="149.27" rx="11.6" ry="4.79" fill="#68e1fd" style="--darkreader-inline-fill: #63e0fd;" data-darkreader-inline-fill=""></ellipse><ellipse cx="82.77" cy="149.27" rx="11.6" ry="4.79" opacity="0.7"></ellipse><path d="M64.51,112.88s-8.08-1.94-5-8.67C59.53,104.21,65.09,105.31,64.51,112.88Z" fill="#938f05" style="--darkreader-inline-fill: #faf667;" data-darkreader-inline-fill=""></path><path d="M69.43,119.66s-1.12-5.75,3.37-8.07C72.8,111.6,76.41,117.62,69.43,119.66Z" fill="#938f05" style="--darkreader-inline-fill: #faf667;" data-darkreader-inline-fill=""></path><path d="M74.47,128.48s-1.34-6.88,4-9.65C78.5,118.83,82.82,126,74.47,128.48Z" fill="#938f05" style="--darkreader-inline-fill: #faf667;" data-darkreader-inline-fill=""></path><path d="M78.37,138.07s-1.34-6.88,4-9.65C82.4,128.42,86.72,135.62,78.37,138.07Z" fill="#938f05" style="--darkreader-inline-fill: #faf667;" data-darkreader-inline-fill=""></path><path d="M68.94,119.82s-2.85-5.11-7.78-4C61.16,115.83,62.29,122.75,68.94,119.82Z" fill="#938f05" style="--darkreader-inline-fill: #faf667;" data-darkreader-inline-fill=""></path><path d="M74,128.69s-3.65-6-9.49-4.41C64.56,124.28,66.23,132.51,74,128.69Z" fill="#938f05" style="--darkreader-inline-fill: #faf667;" data-darkreader-inline-fill=""></path><path d="M77.92,138.16s-4.28-5.54-9.91-3.33C68,134.82,70.58,142.82,77.92,138.16Z" fill="#938f05" style="--darkreader-inline-fill: #faf667;" data-darkreader-inline-fill=""></path><path d="M80.95,154.11h.11a5.59,5.59,0,0,1,1.13.09.56.56,0,0,0,0-.12A82.87,82.87,0,0,0,64.77,112c-.5-.63-1.39.26-.89.89a81.35,81.35,0,0,1,17.06,41.18Z" fill="#42352f" style="--darkreader-inline-fill: #c4bfb8;" data-darkreader-inline-fill=""></path><path d="M100.08,123.86s6.93-1.66,4.27-7.43C104.35,116.42,99.58,117.37,100.08,123.86Z" fill="#938f05" style="--darkreader-inline-fill: #faf667;" data-darkreader-inline-fill=""></path><path d="M95.86,129.67s1-4.93-2.89-6.92C93,122.76,89.87,127.92,95.86,129.67Z" fill="#938f05" style="--darkreader-inline-fill: #faf667;" data-darkreader-inline-fill=""></path><path d="M91.54,137.24s1.15-5.9-3.46-8.28C88.08,129,84.38,135.13,91.54,137.24Z" fill="#938f05" style="--darkreader-inline-fill: #faf667;" data-darkreader-inline-fill=""></path><path d="M88.19,145.47s1.15-5.9-3.46-8.28C84.73,137.19,81,143.37,88.19,145.47Z" fill="#938f05" style="--darkreader-inline-fill: #faf667;" data-darkreader-inline-fill=""></path><path d="M96.28,129.81s2.45-4.39,6.67-3.42C103,126.39,102,132.33,96.28,129.81Z" fill="#938f05" style="--darkreader-inline-fill: #faf667;" data-darkreader-inline-fill=""></path><path d="M91.9,137.42s3.13-5.13,8.14-3.78C100,133.64,98.6,140.7,91.9,137.42Z" fill="#938f05" style="--darkreader-inline-fill: #faf667;" data-darkreader-inline-fill=""></path><path d="M88.57,145.54s3.68-4.75,8.5-2.86C97.08,142.68,94.87,149.54,88.57,145.54Z" fill="#938f05" style="--darkreader-inline-fill: #faf667;" data-darkreader-inline-fill=""></path><path d="M99.86,123.12A71.06,71.06,0,0,0,85.7,154c.37-.06.74-.11,1.12-.15a69.78,69.78,0,0,1,13.8-30C101,123.35,100.29,122.58,99.86,123.12Z" fill="#42352f" style="--darkreader-inline-fill: #c4bfb8;" data-darkreader-inline-fill=""></path><path d="M130.6,84.39a4,4,0,0,1,4.33,0c2.4,1.76,2.41,6.58,0,10.79a11.07,11.07,0,0,1-4.32,4.46,4,4,0,0,1-4.33,0c-2.4-1.76-2.41-6.58,0-10.79A11.07,11.07,0,0,1,130.6,84.39Z" fill="#68e1fd" style="--darkreader-inline-fill: #63e0fd;" data-darkreader-inline-fill=""></path><path d="M130.52,58.59c6.9-3.54,13.81-3.8,19.08.07.76.56.77,2.1,0,3.44a3.55,3.55,0,0,1-1.38,1.42,1.28,1.28,0,0,1-1.38,0c-4.51-3.3-10.42-3.08-16.32-.06s-11.79,8.85-16.26,16.75a3.55,3.55,0,0,1-1.38,1.42,1.28,1.28,0,0,1-1.38,0c-.77-.56-.77-2.1,0-3.44C116.73,68.94,123.62,62.13,130.52,58.59Z" fill="#68e1fd" style="--darkreader-inline-fill: #63e0fd;" data-darkreader-inline-fill=""></path><path d="M130.48,45.26c9.51-4.88,19-5.15,26.45.28,1.23.91.35,4-1.37,4.87a1.27,1.27,0,0,1-1.38,0c-6.66-4.87-15.18-4.65-23.69-.28s-17,12.86-23.62,24.53a3.52,3.52,0,0,1-1.38,1.42,1.29,1.29,0,0,1-1.39,0c-.76-.56-.77-2.1,0-3.44C111.47,59.61,121,50.13,130.48,45.26Z" fill="#68e1fd" style="--darkreader-inline-fill: #63e0fd;" data-darkreader-inline-fill=""></path><path d="M130.56,71.06c4.34-2.22,8.69-2.39,12,0,1.23.9.35,4-1.37,4.86a1.29,1.29,0,0,1-1.38,0c-2.55-1.87-5.9-1.75-9.24,0a23.6,23.6,0,0,0-9.21,9.49A3.52,3.52,0,0,1,120,86.83a1.29,1.29,0,0,1-1.39,0c-.76-.57-.77-2.11,0-3.44C121.88,77.57,126.22,73.28,130.56,71.06Z" fill="#68e1fd" style="--darkreader-inline-fill: #63e0fd;" data-darkreader-inline-fill=""></path><path d="M142.81,186.7c13.62-7.65,29.83-16.11,43.44-23.76l11.09-6.23c1.24-.7,2.64-1.76,4-2.39a4,4,0,0,1,1.24.58c1.4,1,3.06,1.71,4.55,2.54l13.32,7.44c6.66,3.72,16.44,8.19,23.1,11.91,1.4,0-.33-.86,1.06-1l-.09-.07-19.9-11.12L210,156.43c-2.16-1.21-5.15-3.75-7.6-4.25-1.4-.29-1.94.22-3.23.94l-8.88,5-28.66,16.11L141.69,185.4a1,1,0,0,0-.49.57C142.6,186,141.41,186.77,142.81,186.7Z" fill="#d8d8d8" style="--darkreader-inline-fill: #cfcbc5;" data-darkreader-inline-fill=""></path><path d="M199.15,216.69c-12.67-8.74-26.4-15.74-39.3-24.12-1.22-.79-2.35,1.16-1.14,1.94,12.9,8.38,26.63,15.38,39.3,24.12,1.19.82,2.32-1.13,1.14-1.94Z" fill="#d8d8d8" style="--darkreader-inline-fill: #cfcbc5;" data-darkreader-inline-fill=""></path><path d="M223.72,202.34c-13.39-7.05-26.07-15.32-39.08-23a1.13,1.13,0,0,0-1.14,1.94c13,7.72,25.69,16,39.08,23,1.28.67,2.42-1.27,1.14-1.94Z" fill="#d8d8d8" style="--darkreader-inline-fill: #cfcbc5;" data-darkreader-inline-fill=""></path><path d="M188.92,217.82l-2.22-1.21a2.16,2.16,0,0,1-1.08-1.45c-.4-1.95-.64-6.19,4.12-8l2.34,1.43" fill="#3695c9" style="--darkreader-inline-fill: #4aa0ce;" data-darkreader-inline-fill=""></path><ellipse cx="191.75" cy="212.91" rx="5.66" ry="3.29" transform="translate(-88.52 272.52) rotate(-60)" fill="#1174b5" style="--darkreader-inline-fill: #52b0ef;" data-darkreader-inline-fill=""></ellipse><polygon points="194.68 209.55 194.68 206.91 191.47 205.25 187.36 206.87 186.68 209.28 188.49 207.74 190.68 209.06 190.68 211.51 194.68 209.55" fill="#747e80" style="--darkreader-inline-fill: #9b9285;" data-darkreader-inline-fill=""></polygon><path d="M194.68,209.55s-.49,4.7-2.22,5-2.07-3.32-1.78-4" fill="#747e80" style="--darkreader-inline-fill: #9b9285;" data-darkreader-inline-fill=""></path><path d="M149.87,244.47l-2.22-1.21a2.16,2.16,0,0,1-1.08-1.45c-.4-1.95-.64-6.19,4.12-8l2.34,1.43" fill="#3695c9" style="--darkreader-inline-fill: #4aa0ce;" data-darkreader-inline-fill=""></path><ellipse cx="152.7" cy="239.57" rx="5.66" ry="3.29" transform="matrix(0.5, -0.87, 0.87, 0.5, -131.12, 252.03)" fill="#1174b5" style="--darkreader-inline-fill: #52b0ef;" data-darkreader-inline-fill=""></ellipse><polygon points="155.64 236.21 155.64 233.57 152.43 231.91 148.32 233.53 147.64 235.94 149.45 234.4 151.64 235.72 151.64 238.17 155.64 236.21" fill="#747e80" style="--darkreader-inline-fill: #9b9285;" data-darkreader-inline-fill=""></polygon><path d="M155.64,236.21s-.49,4.7-2.22,5-2.07-3.32-1.78-4" fill="#747e80" style="--darkreader-inline-fill: #9b9285;" data-darkreader-inline-fill=""></path><path d="M184.39,265.47l-2.22-1.21a2.16,2.16,0,0,1-1.08-1.45c-.4-1.95-.64-6.19,4.12-8l2.34,1.43" fill="#3695c9" style="--darkreader-inline-fill: #4aa0ce;" data-darkreader-inline-fill=""></path><ellipse cx="187.22" cy="260.57" rx="5.66" ry="3.29" transform="matrix(0.5, -0.87, 0.87, 0.5, -132.05, 292.42)" fill="#1174b5" style="--darkreader-inline-fill: #52b0ef;" data-darkreader-inline-fill=""></ellipse><polygon points="190.15 257.21 190.15 254.57 186.94 252.91 182.83 254.53 182.15 256.93 183.96 255.4 186.15 256.71 186.15 259.17 190.15 257.21" fill="#747e80" style="--darkreader-inline-fill: #9b9285;" data-darkreader-inline-fill=""></polygon><path d="M190.15,257.21s-.49,4.7-2.22,5-2.07-3.32-1.78-4" fill="#747e80" style="--darkreader-inline-fill: #9b9285;" data-darkreader-inline-fill=""></path><path d="M230.21,241.52,228,240.31a2.16,2.16,0,0,1-1.08-1.45c-.4-1.95-.64-6.19,4.12-8l2.34,1.43" fill="#3695c9" style="--darkreader-inline-fill: #4aa0ce;" data-darkreader-inline-fill=""></path><ellipse cx="233.04" cy="236.62" rx="5.66" ry="3.29" transform="matrix(0.5, -0.87, 0.87, 0.5, -88.4, 320.13)" fill="#1174b5" style="--darkreader-inline-fill: #52b0ef;" data-darkreader-inline-fill=""></ellipse><polygon points="235.97 233.26 235.97 230.62 232.76 228.96 228.65 230.58 227.97 232.98 229.78 231.45 231.97 232.76 231.97 235.22 235.97 233.26" fill="#747e80" style="--darkreader-inline-fill: #9b9285;" data-darkreader-inline-fill=""></polygon><path d="M236,233.26s-.49,4.7-2.22,5-2.07-3.32-1.78-4" fill="#747e80" style="--darkreader-inline-fill: #9b9285;" data-darkreader-inline-fill=""></path><path d="M239.77,195.68c-13.54-7.67-26.9-15.9-40.71-23.07-3.25-1.69-6.53,1.63-9.49,3.29l-26.49,14.87-19,10.68a1.13,1.13,0,0,0,1.14,1.94l41.11-23.09,9.2-5.17,2-1.13c.51-.29-1.29-.63-.28.15,2.29,1.78,5.33,3,7.85,4.45l13,7.36,20.55,11.64a1.13,1.13,0,0,0,1.14-1.94Z" fill="#d8d8d8" style="--darkreader-inline-fill: #cfcbc5;" data-darkreader-inline-fill=""></path><path d="M209.07,122.35l7.19-4.29a16.22,16.22,0,0,1,3-1.76c-.88.27-1.23-.31-.37.35,3.91,3,8.72,5.24,12.93,7.78l27.82,16.74v-1.94c-3.18,1.79-8.81,3.39-10.13,6.88-1.74,4.62-2.21,10.2-3.25,15l-11.17,51.56c-1.08,5-2.77,10.21-3.31,15.29-.17,1.59.68.29-.6.84-2.33,1-4.58,2.38-6.82,3.56L201,244.52c-5.24,2.73-10.47,6-15.93,8.3.28-.12,1,.69.06-.34-.79-.86-2.57-1.53-3.56-2.13l-11.76-7-18.7-11.17v1.94l22.65-15.95,13.65-9.61c1.36-1,3.12-1.79,3.89-3.25,1-2,1.14-5.22,1.61-7.39l3.27-15,8.25-37.75,5.13-23.49c.31-1.41-1.86-2-2.17-.6l-12.1,55.36c-1.93,8.84-4.24,17.69-5.81,26.61a8.58,8.58,0,0,1-.4,1.82c.51-1.16-.24-.09-1.15.55L175.82,214,150,232.16a1.14,1.14,0,0,0,0,1.94l15.7,9.38,11.82,7.06c2.06,1.23,4.57,3.41,6.88,4.11,2.88.87,7.06-2.61,9.62-3.94l23.8-12.4L228,233c1.42-.74,4-1.49,5.11-2.66,1.66-1.74,1.7-5.79,2.19-8.05l10.8-49.87,5-22.88c.15-.68.92-3.88.6-3.45-.51.69,1-.4,1.34-.57,1-.53,2-1.15,3.06-1.72l4.7-2.64a1.14,1.14,0,0,0,0-1.94L219.3,114.3a1.13,1.13,0,0,0-1.14,0l-10.23,6.11A1.13,1.13,0,0,0,209.07,122.35Z" fill="#d8d8d8" style="--darkreader-inline-fill: #cfcbc5;" data-darkreader-inline-fill=""></path><path d="M232.78,148.5l-10,40.12a1.13,1.13,0,0,0,2.17.6l10-40.12a1.13,1.13,0,0,0-2.17-.6Z" fill="#d8d8d8" style="--darkreader-inline-fill: #cfcbc5;" data-darkreader-inline-fill=""></path><path d="M218.55,140.46l-9.83,39.24a1.13,1.13,0,0,0,2.17.6l9.83-39.24a1.13,1.13,0,0,0-2.17-.6Z" fill="#d8d8d8" style="--darkreader-inline-fill: #cfcbc5;" data-darkreader-inline-fill=""></path><path d="M213.09,209c-13-8-26-16.09-39.25-23.64a1.13,1.13,0,0,0-1.14,1.94C186,194.86,199,202.94,212,211c1.24.76,2.37-1.18,1.14-1.94Z" fill="#d8d8d8" style="--darkreader-inline-fill: #cfcbc5;" data-darkreader-inline-fill=""></path><path d="M248.68,155.9l-21.94-12.42-14.42-8.16c-1.54-.87-4.35-3.33-6.21-3.41-1.34-.06-3.17,1.5-4.26,2.11l-11.33,6.32-30.94,17.26-20.31,11.33c-1.26.71-.13,2.65,1.14,1.94l46.21-25.79c6.48-3.61,13.27-6.93,19.54-10.9.83-.52-1.24-.64-.3.06a34,34,0,0,0,3.59,2l13.14,7.44,25,14.12a1.13,1.13,0,0,0,1.14-1.94Z" fill="#d8d8d8" style="--darkreader-inline-fill: #cfcbc5;" data-darkreader-inline-fill=""></path><path d="M152.62,178.46l5.58,32.72c.24,1.42,2.41.82,2.17-.6l-5.58-32.72c-.24-1.42-2.41-.82-2.17.6Z" fill="#d8d8d8" style="--darkreader-inline-fill: #cfcbc5;" data-darkreader-inline-fill=""></path><path d="M156.9,159.76V194.5a1.13,1.13,0,0,0,2.25,0V159.76a1.13,1.13,0,0,0-2.25,0Z" fill="#d8d8d8" style="--darkreader-inline-fill: #cfcbc5;" data-darkreader-inline-fill=""></path><path d="M171.77,151.46l-.91,35.6a1.13,1.13,0,0,0,2.25,0l.91-35.6a1.13,1.13,0,0,0-2.25,0Z" fill="#d8d8d8" style="--darkreader-inline-fill: #cfcbc5;" data-darkreader-inline-fill=""></path><path d="M186.14,143.45l-4.36,37.48c-.17,1.44,2.08,1.42,2.25,0l4.36-37.48c.17-1.44-2.08-1.42-2.25,0Z" fill="#d8d8d8" style="--darkreader-inline-fill: #cfcbc5;" data-darkreader-inline-fill=""></path><path d="M256.72,137.05s-.91-.54-1.43,0,0,1.33,0,1.33l.79.47a1.46,1.46,0,0,1-1.75.32c-1.23-.42-32.32-19-32.32-19s-.86-1.09-.39-2a2.62,2.62,0,0,1,3-1.61c1.62.35,32.1,18.68,32.1,18.68S257.58,136.53,256.72,137.05Z" fill="#f14a24" style="--darkreader-inline-fill: #f25936;" data-darkreader-inline-fill=""></path><path d="M212.56,117.3c10.87.75,10.3,18.33,11,25.63.18,1.83-2.64,2.45-2.83.6-.61-6.08-.21-14.31-3.58-19.66-1-1.66-2.29-3.27-4.42-3.42a4.76,4.76,0,0,0-3.54,1.4c-1,.86-1.46,4.26-1.62,5.27a43.21,43.21,0,0,0-.19,11.38c.19,1.83-2.63,2.45-2.83.6C204,133.34,202.87,116.63,212.56,117.3Z" fill="#f15a24" style="--darkreader-inline-fill: #f26736;" data-darkreader-inline-fill=""></path><polyline points="196.3 129.1 193.03 134.55 186.49 135.91 191.39 152.8 205.29 143.81" fill="#68e1fd" style="--darkreader-inline-fill: #63e0fd;" data-darkreader-inline-fill=""></polyline><polyline points="196.3 129.1 193.03 134.55 186.49 135.91 191.39 152.8 205.29 143.81" fill="#606060" opacity="0.28" style="--darkreader-inline-fill: #aba499;" data-darkreader-inline-fill=""></polyline><polygon points="229.81 147.63 196.3 129.1 197.39 156.62 223 159.07 229.81 147.63" fill="#68e1fd" style="--darkreader-inline-fill: #63e0fd;" data-darkreader-inline-fill=""></polygon><polygon points="229.81 147.63 196.3 129.1 197.39 156.62 223 159.07 229.81 147.63" fill="#606060" opacity="0.81" style="--darkreader-inline-fill: #aba499;" data-darkreader-inline-fill=""></polygon><polygon points="217.82 151.71 212.65 203.75 181.31 184.95 186.49 135.91 217.82 151.71" fill="#68e1fd" style="--darkreader-inline-fill: #63e0fd;" data-darkreader-inline-fill=""></polygon><polygon points="217.82 151.71 221.37 147.63 229.81 147.63 229.81 193.41 224.26 197.32 212.65 203.75 217.82 151.71" fill="#68e1fd" style="--darkreader-inline-fill: #63e0fd;" data-darkreader-inline-fill=""></polygon><polygon points="217.82 151.71 221.37 147.63 229.81 147.63 229.81 193.41 224.26 197.32 212.65 203.75 217.82 151.71" fill="#606060" opacity="0.28" style="--darkreader-inline-fill: #aba499;" data-darkreader-inline-fill=""></polygon><path d="M198.56,126c10.9.1,11.38,17.69,12.55,24.92.29,1.82-2.49,2.6-2.79.77-1-6-1.06-14.27-4.75-19.41-1.51-2.11-4.17-3.88-6.77-2.5-2.34,1.24-2.37,4-2.6,6.31a43.21,43.21,0,0,0,.49,11.37c.3,1.82-2.48,2.6-2.79.77C191,142.53,188.86,125.91,198.56,126Z" fill="#f15a24" style="--darkreader-inline-fill: #f26736;" data-darkreader-inline-fill=""></path><path d="M186.57,153.89c8.16.56,7.74,13.77,8.29,19.24.14,1.38-2,1.84-2.12.45-.46-4.56-.16-10.75-2.69-14.76-.78-1.24-1.72-2.46-3.32-2.57a3.58,3.58,0,0,0-2.66,1c-.72.65-1.1,3.2-1.22,4a32.44,32.44,0,0,0-.14,8.54c.15,1.38-2,1.84-2.12.45C180.12,165.94,179.29,153.39,186.57,153.89Z" fill="#f15a24" style="--darkreader-inline-fill: #f26736;" data-darkreader-inline-fill=""></path><polyline points="174.36 162.75 171.9 166.84 166.99 167.87 170.67 180.55 181.11 173.8" fill="#68e1fd" style="--darkreader-inline-fill: #63e0fd;" data-darkreader-inline-fill=""></polyline><polyline points="174.36 162.75 171.9 166.84 166.99 167.87 170.67 180.55 181.11 173.8" fill="#606060" opacity="0.28" style="--darkreader-inline-fill: #aba499;" data-darkreader-inline-fill=""></polyline><polygon points="199.52 176.66 174.36 162.75 175.18 183.41 194.41 185.25 199.52 176.66" fill="#68e1fd" style="--darkreader-inline-fill: #63e0fd;" data-darkreader-inline-fill=""></polygon><polygon points="199.52 176.66 174.36 162.75 175.18 183.41 194.41 185.25 199.52 176.66" fill="#606060" opacity="0.81" style="--darkreader-inline-fill: #aba499;" data-darkreader-inline-fill=""></polygon><polygon points="190.52 179.73 186.63 218.81 163.1 204.69 166.99 167.87 190.52 179.73" fill="#68e1fd" style="--darkreader-inline-fill: #63e0fd;" data-darkreader-inline-fill=""></polygon><polygon points="190.52 179.73 193.18 176.66 199.52 176.66 199.52 211.04 195.35 213.98 186.63 218.81 190.52 179.73" fill="#68e1fd" style="--darkreader-inline-fill: #63e0fd;" data-darkreader-inline-fill=""></polygon><polygon points="190.52 179.73 193.18 176.66 199.52 176.66 199.52 211.04 195.35 213.98 186.63 218.81 190.52 179.73" fill="#606060" opacity="0.28" style="--darkreader-inline-fill: #aba499;" data-darkreader-inline-fill=""></polygon><path d="M176.06,160.42c8.18.08,8.55,13.28,9.42,18.72.22,1.37-1.87,2-2.09.58-.73-4.53-.8-10.72-3.57-14.58-1.14-1.58-3.13-2.91-5.09-1.88-1.75.93-1.78,3-2,4.74a32.44,32.44,0,0,0,.37,8.54c.23,1.37-1.86,2-2.09.58C170.35,172.83,168.77,160.36,176.06,160.42Z" fill="#f15a24" style="--darkreader-inline-fill: #f26736;" data-darkreader-inline-fill=""></path><path d="M247.55,155.9l-46.27,26.24q-9.82,5.57-19.64,11.14c-1,.55,1.06.5.33,0-1.11-.7-2.28-1.34-3.41-2l-13.33-7.82L140.4,168.94a1.14,1.14,0,0,0-1.65,1.27c1.51,10.28,2.44,20.84,4.56,31,.51,2.46,1.53,2.64,3.75,3.92l15.72,9.07,16.66,9.61c2,1.13,5.15,4,7.5,3.67,2.19-.29,5.44-3.08,7.31-4.13L210.78,214l29-16.4a1.13,1.13,0,0,0-1.14-1.94l-23,13c-9.37,5.3-19.52,10-28.43,16.08-1.35.92-1.51.36-.37.75a22,22,0,0,1-3.41-2l-15.24-8.79-16-9.24c-1.75-1-3.48-2.11-5.27-3a8,8,0,0,1-1.39-.8c-.83-.69.44,1,.1.13-.74-1.92-.69-4.66-1-6.69l-1.5-10.21-2.25-15.28-1.65,1.27,21.82,12.8,14.34,8.41c1.52.89,4.44,3.52,6.33,3.53,1.37,0,3.38-1.75,4.49-2.38L197,187.14l31.57-17.91,20.09-11.39a1.13,1.13,0,0,0-1.14-1.94Z" fill="#d8d8d8" style="--darkreader-inline-fill: #cfcbc5;" data-darkreader-inline-fill=""></path><path d="M243.42,175.69c-13.83,7.56-30,16.48-43.8,24-4.82,2.64-10.05,6.56-15.29,8.48a3.82,3.82,0,0,1-1-.51c-1.3-.86-2.79-1.54-4.16-2.29L166,198.16c-6.81-3.75-16.38-8.62-23.19-12.37-1.41.07-.06,1.23-1.47,1.19a1.09,1.09,0,0,0,.4.37l20.07,11.07L176,206.28c2,1.12,5.13,3.75,7.46,4.11,1.31.21,1.93-.33,3.13-1l9.66-5.28,28.62-15.66,19.65-10.75a1.07,1.07,0,0,0,.54-.91C243.77,176.91,244.75,175.64,243.42,175.69Z" fill="#d8d8d8" style="--darkreader-inline-fill: #cfcbc5;" data-darkreader-inline-fill=""></path><path d="M166.76,186.64,171.71,219c.22,1.43,2.39.82,2.17-.6L168.93,186c-.22-1.43-2.39-.82-2.17.6Z" fill="#d8d8d8" style="--darkreader-inline-fill: #cfcbc5;" data-darkreader-inline-fill=""></path><path d="M180.68,194.8l4.62,32c.21,1.43,2.37.82,2.17-.6l-4.62-32c-.21-1.43-2.37-.82-2.17.6Z" fill="#d8d8d8" style="--darkreader-inline-fill: #cfcbc5;" data-darkreader-inline-fill=""></path><path d="M199.12,184.6c0,11.26.54,22.5.57,33.76a1.13,1.13,0,0,0,2.25,0c0-11.26-.54-22.5-.57-33.76a1.13,1.13,0,0,0-2.25,0Z" fill="#d8d8d8" style="--darkreader-inline-fill: #cfcbc5;" data-darkreader-inline-fill=""></path><path d="M212.91,176.2q-.22,16.77,0,33.53a1.13,1.13,0,0,0,2.25,0q-.23-16.77,0-33.53a1.13,1.13,0,0,0-2.25,0Z" fill="#d8d8d8" style="--darkreader-inline-fill: #cfcbc5;" data-darkreader-inline-fill=""></path><path d="M228.83,167.1l-4.55,36.16c-.18,1.43,2.07,1.42,2.25,0l4.55-36.16c.18-1.43-2.07-1.42-2.25,0Z" fill="#d8d8d8" style="--darkreader-inline-fill: #cfcbc5;" data-darkreader-inline-fill=""></path><path d="M264.63,85.61c0-.6-3.4-4.75-1.33-6.9s4.4-2.15,6.69-1.38a10.67,10.67,0,0,1,7.42,8.28A63.08,63.08,0,0,1,279,94.94l-9.39-3.15" fill="#ff9739" style="--darkreader-inline-fill: #ff9b41;" data-darkreader-inline-fill=""></path><path d="M274.23,113.25s-6.38-2.66-5.84-10.79a20.67,20.67,0,0,1,6.27-13.16L279,94.94" fill="#ff9739" style="--darkreader-inline-fill: #ff9b41;" data-darkreader-inline-fill=""></path><path d="M277.85,87.55s5.3,16.18,4.62,20.9-8.23,4.8-8.23,4.8" fill="#ff9739" style="--darkreader-inline-fill: #ff9b41;" data-darkreader-inline-fill=""></path><path d="M290.67,151.93,279,146.2a86.38,86.38,0,0,0-3.58-23.58l-9.82-1.81a126.9,126.9,0,0,0-.48,16,44.27,44.27,0,0,0,1.77,11.81c1,3,2.29,6.43,5.27,8,2.59,1.36,5.88,1.84,8.69,2.62.9.25,9.84,2.31,9.84,2.73Z" fill="#dd842a" style="--darkreader-inline-fill: #e0903e;" data-darkreader-inline-fill=""></path><path d="M257.87,100.4a67.82,67.82,0,0,1-6,9.34c-1.58,1.83-15.4,8.2-15.4,8.2s-7.64-.93-8.68,1.7-1.61,3.42,1,4.8,5-2.35,7.5-2.59,17.85-3.44,24.93-14.14c1-1.49,2-6.55,3.29-8.16a11.36,11.36,0,0,1-.32-2.45C261.44,97.78,260.57,99.49,257.87,100.4Z" fill="#ffb288" style="--darkreader-inline-fill: #ffa879;" data-darkreader-inline-fill=""></path><path d="M277.72,95.87a14.88,14.88,0,0,0-2-1.89C272,92.26,266,90.81,265,90.91s-4.51,1.69-5.21,4.23-1.09,7.89-1.09,14c0,6.53-2,15.58-2,15.58s6.39,4.35,12.26,3.77c4.15-.41,7.16-.66,8.35-2C277.41,117.28,277,104.75,277.72,95.87Z" fill="#aa2b2b" style="--darkreader-inline-fill: #d75f5f;" data-darkreader-inline-fill=""></path><path d="M270.83,103.91a55.12,55.12,0,0,1-6.21,11.37c-1.25,1.91-14.57,11.17-14.57,11.17s-5.69-1.1-6.34,1.49-1.43,4.86,1.14,5.82,4.7-4.12,7-4.66,15.33-6.35,21.23-13.7a24.34,24.34,0,0,0,3.78-7.26C273.74,107.25,273.42,105.79,270.83,103.91Z" fill="#ffb288" style="--darkreader-inline-fill: #ffa879;" data-darkreader-inline-fill=""></path><path d="M265.65,109.81s5.15-14.78,6.86-15.5a4.43,4.43,0,0,1,6.09,3c.89,3.58-2.44,15-3.33,16.26S265.65,109.81,265.65,109.81Z" fill="#aa2b2b" style="--darkreader-inline-fill: #d75f5f;" data-darkreader-inline-fill=""></path><polyline points="260.44 93.98 252.43 104.01 259.52 111.71 263.32 107.58" fill="#aa2b2b" style="--darkreader-inline-fill: #d75f5f;" data-darkreader-inline-fill=""></polyline><path d="M272.88,88.4v5.36a4.42,4.42,0,0,1-5.15,0L266.5,88" fill="#e59770" style="--darkreader-inline-fill: #e59770;" data-darkreader-inline-fill=""></path><path d="M265.52,81.55a.4.4,0,0,1,.18,0,14.5,14.5,0,0,0,3.12.67c1.06,0,2.12-.07,3.17,0,.7,0,1.14,1.69,1.13,3.73.45-.27,1-.39,1.36.12a1.35,1.35,0,0,1-.38,1.73,2.62,2.62,0,0,1-1.22.6,5,5,0,0,1-4.09,4.2,3.11,3.11,0,0,1-3.56-2.47,16.77,16.77,0,0,1-.5-6.62l.07-1.09a1.13,1.13,0,0,1,.56-.79A.4.4,0,0,1,265.52,81.55Z" fill="#ffb288" style="--darkreader-inline-fill: #ffa879;" data-darkreader-inline-fill=""></path><path d="M266,80.77s3.87,5.65,6.82,5.21-.31-4.84-.31-4.84" fill="#ff9739" style="--darkreader-inline-fill: #ff9b41;" data-darkreader-inline-fill=""></path></svg>